<svg xmlns="http://www.w3.org/2000/svg" enable-background="new 0 0 512 512" viewBox="0 0 512 512"><path fill="#269ccf" d="M249.126,285.976c3.6,2.381,10.148,2.381,13.776,0l134.873-89.405v-27.666c-0.17-0.68-3.033-2.976-8.164-2.976H122.389c-5.131,0-7.965,2.296-8.164,3.033v27.609l50.003,33.137L249.126,285.976z"/><path fill="#269ccf" d="M267.069,299.214c-6.293,4.195-15.817,4.195-22.139,0l-130.706-86.626v130.479c0.199,0.68,3.033,3.005,8.164,3.005h267.222c5.131,0,7.994-2.325,8.192-3.062l-0.028-130.422L267.069,299.214z"/><path fill="#269ccf" d="M256.014,0.499C114.905,0.499,0.499,114.877,0.499,255.986c0,141.108,114.406,255.515,255.515,255.515c141.109,0,255.487-114.406,255.487-255.515C511.501,114.877,397.123,0.499,256.014,0.499z M411.154,187.728v155.338c0,9.156-9.468,16.356-21.543,16.356H122.389c-12.076,0-21.515-7.2-21.515-16.356V168.906c0-9.156,9.439-16.356,21.515-16.356h267.222c12.075,0,21.543,7.2,21.543,16.356V187.728z"/></svg>